<svg width="284" height="458" viewBox="0 0 284 458" fill="none" xmlns="http://www.w3.org/2000/svg">
<path d="M148.868 456L147.029 455.216C146.73 455.915 146.855 456.723 147.349 457.301C147.844 457.879 148.624 458.126 149.361 457.938L148.868 456ZM153.346 445.498L151.549 444.619L151.527 444.665L151.506 444.713L153.346 445.498ZM149.976 456.825C150.143 456.714 150.311 456.603 150.478 456.491L148.259 453.163C148.093 453.274 147.927 453.384 147.761 453.495L149.976 456.825ZM150.478 456.491C238.338 397.926 276.509 340.739 282.988 287.463C289.466 234.19 264.178 185.474 226.625 144.032C189.059 102.574 138.993 68.1329 95.2922 43.3088C51.6323 18.508 14.0913 3.17615 1.47998 0.0584491L0.520021 3.94155C12.5969 6.92714 49.7604 22.0449 93.3165 46.7868C136.832 71.5054 186.494 105.7 223.661 146.718C260.843 187.751 285.296 235.35 279.017 286.98C272.739 338.605 235.656 394.907 148.259 453.163L150.478 456.491ZM172.046 448.104C170.714 448.565 166.359 449.663 161.442 450.866C156.605 452.05 151.342 453.308 148.376 454.062L149.361 457.938C152.306 457.19 157.514 455.946 162.393 454.752C167.191 453.577 171.797 452.423 173.355 451.883L172.046 448.104ZM150.708 456.784L151.208 455.612L147.529 454.043L147.029 455.216L150.708 456.784ZM151.208 455.611L155.186 446.282L151.506 444.713L147.529 454.043L151.208 455.611ZM155.143 446.376L160.044 436.356L156.451 434.599L151.549 444.619L155.143 446.376Z" fill="#797D8D"/>
</svg>
