<svg width="246" height="458" viewBox="0 0 246 458" fill="none" xmlns="http://www.w3.org/2000/svg">
<path d="M117.142 455.5L116.579 457.419C117.305 457.632 118.088 457.418 118.604 456.865C119.12 456.313 119.281 455.517 119.019 454.807L117.142 455.5ZM113.27 445.009L115.146 444.316L115.13 444.272L115.111 444.229L113.27 445.009ZM118.361 453.075C118.217 452.965 118.074 452.854 117.93 452.744L115.49 455.913C115.634 456.024 115.779 456.136 115.924 456.247L118.361 453.075ZM117.93 452.744C42.405 394.6 10.2915 338.364 4.85158 286.698C-0.590651 235.01 20.6106 187.413 52.7476 146.451C84.8828 105.492 127.816 71.3505 165.431 46.6726C203.097 21.9605 235.199 6.88689 245.579 3.92315L244.481 0.0768549C233.509 3.20967 201.001 18.5521 163.236 43.3282C125.42 68.1384 82.1013 102.557 49.6005 143.982C17.1015 185.406 -4.7172 234.018 0.873571 287.116C6.4666 340.237 39.4391 397.364 115.49 455.913L117.93 452.744ZM95.7875 451.357C97.1628 451.907 101.177 453.068 105.313 454.237C109.538 455.431 114.035 456.673 116.579 457.419L117.706 453.581C115.138 452.827 110.579 451.569 106.401 450.388C102.133 449.182 98.3978 448.093 97.2731 447.643L95.7875 451.357ZM119.019 454.807L118.586 453.636L114.834 455.021L115.266 456.193L119.019 454.807ZM118.586 453.636L115.146 444.316L111.394 445.702L114.834 455.021L118.586 453.636ZM115.111 444.229L110.872 434.22L107.189 435.78L111.428 445.789L115.111 444.229Z" fill="#797D8D"/>
</svg>
